<?xml version="1.0" encoding="UTF-8" standalone="no"?>
<svg id="svg2" xmlns:rdf="http://www.w3.org/1999/02/22-rdf-syntax-ns#" xmlns="http://www.w3.org/2000/svg" viewBox="0 0 744.09 1052.4" height="100%" width="100%" version="1.1" xmlns:cc="http://creativecommons.org/ns#" xmlns:dc="http://purl.org/dc/elements/1.1/">
 <defs id="defs4"></defs>
 <metadata id="metadata7">
  <rdf:RDF>
   <cc:Work rdf:about="">
    <dc:format>image/svg+xml</dc:format>
    <dc:type rdf:resource="http://purl.org/dc/dcmitype/StillImage"/>
    <dc:title/>
   </cc:Work>
  </rdf:RDF>
 </metadata>
 <g id="layer1" transform="matrix(1.9732704,0,0,2.4645111,-426.98571,5.7161008)">
  <path id="anchorage" fill="#000" d="m63.271,40.674-23.242-1.1298-11.783-1.1298-11.46,2.0983-3.2281,2.7439-5.6492,0.32281-1.614,2.7439,4.5194,2.2597-0.48422,0.96843-5.8106,1.1298,0,1.7754,3.8737,2.7439,7.9089,0,0,1.2912-5.0036,0.48421-3.5509,2.7439,2.0983,3.3895,2.9053,2.9053,5.0036,0.48422,1.2912,1.4526,7.1018,0.48421-2.9053,3.0667-10.976,3.8737-9.5229,3.2281-2.4211,0.16141-0.16141,3.3895,14.526-4.0351,14.526-5.0036,5.165-3.2281,3.0667-3.5509,4.3579-2.4211,10.33,0.32281,11.46,0.80702,9.2001,4.5194,5.0036,4.3579,3.5509,0.48422,0.32281,4.8422,2.7439,1.6141,5.165-1.7755-0.64562-4.8422-9.8457-8.5545-4.6808,0-3.5509,0-6.1334-2.9053z"/>
  <path id="yellowknife" fill="#000" d="m65.27,41.068,27.62-1.3696,11.641-13.011,28.076-5.25,30.587-3.8804,11.641-4.337,23.283-1.5978,42.685,1.5978,0,2.2826-25.565,6.3913-5.7065,3.6522-5.4783,3.1957-3.1957,3.6522-23.283,0.68478-6.1631,5.9348,6.1631,5.7065,4.1087-0.22826,1.1413,2.5109,5.25-4.1087,7.9892-0.22827,0,8.4457-9.587,0-9.3587,6.8478-4.5652,0.45653-4.1087,5.0218-97.696,0.68478-4.5652-2.9674z"/>
  <path id="vancouver" fill="#000" d="m80.86,65.679,10.009,8.2415,0.32288,5.5471,2.4216,4.5962,0.64577,3.4868,6.7805,3.4868,2.5831-1.2679,16.79,0,0.16145-24.566z"/>
  <path id="calgary" fill="#000" d="m122.49,65.354,32.312-0.15746,0.15837,24.878-32.787-0.15746z"/>
  <path id="winnipeg" fill="#000" d="m156.24,65.042,12.915,0-0.16144,2.0621,3.8746,3.3311,5.8118,0.79312,9.8479,3.9656,6.9419,0.15862,0,5.2346-9.0406,9.3588-6.4576-0.47587-5.3276,2.6966-7.7491-2.538-10.655-0.15862z"/>
  <path id="toronto" fill="#000" d="m196.91,81.268-9.6843,10.007,2.4211,1.2105,0.48422,2.7439,6.2948,0.32281,3.5509,2.5825-0.16141,1.7755-2.986,0.32281-0.64561,3.8737,2.7439-0.88772,3.793-2.8246,5.3264-0.16141,3.3895-1.7755-8.8773-16.948-2.5825,2.5825z"/>
  <path id="montreal" fill="#000" d="m202.89,79.734,10.169,19.369,4.8422,0.1614,3.8737-3.5509,0.16141-2.2597,1.614-1.9369-1.1298-2.2597,8.0703-3.2281-3.7123-19.207-4.358-0.80703,0.32282-3.8737-5.4878-0.32281-1.9369-3.5509-12.267-0.1614,0,7.586-0.64563,2.0983,4.0351,2.9053-0.16141,2.9053-5.6492,2.7439z"/>
  <path id="halifax" fill="#000" d="m227.85,66.414,3.3905-0.13913,2.7608-2.5644,8.5002,8.2877-2.9084,0.46511,10.3,4.5871,0.46935,2.2628,3.7133-0.13701-0.0393,5.9719-2.4348,2.0823,4.3462,1.8041,2.0982,0.01379-0.50753,3.5477-2.2702,1.5992-2.2607,0.14655-0.3122-1.6161-6.6206,0.44072-0.78262-3.7175,4.3748-2.5538-2.7269-2.6005-4.8612,2.8734-6.7757-0.52876-0.53511,7.7441,5.1521,1.9708,2.5962-2.0813,3.8535,3.0921-4.6849,0.61485-6.6344,2.5389-2.7566,1.9188-2.7237-3.0847,1.2976-0.95992-3.2227-0.82822,0.0212-3.228-4.3568-0.19004,2.2819-3.3746,0.33235-1.4505,6.3127-2.7025z"/>
  <path id="labrador" opacity="0.98999999" fill="#00F" d="m198.53,41.481-0.16141,11.298-11.298,0.1614-8.5545,6.6176-5.3264,0.48422-2.4211,3.7123,0.32281,2.7439,7.9088,2.9053,10.491,3.7123,7.586,0.16141-0.32281,5.8106,3.3895,2.7439,1.4526-1.1298-2.9053-4.6808,5.0036-2.5825-0.16141-2.5825-3.8737-2.2597,1.2912-3.0667-0.32281-9.5229,15.011,0.32281,7.1018,4.0351,1.9369,0.64562,0,3.2281,5.165-0.1614,4.1965-3.0667,21.305,17.27,1.1298,7.1018,2.9053,2.2597,88.45,9.3615,5.6492-11.783-30.667-31.797-3.5509-5.8106-10.169,0.64562-8.3931,5.6492-10.33,1.2912-8.8773,13.558-15.334-6.4562-9.6843-13.397-2.0983-8.3931-1.4526-5.3264-3.2281-2.5825-15.818-2.0983-9.3615-0.000001-5.0036-2.0983-4.1965-5.0036-13.881,10.976-22.92,0.96843-3.3895,3.8737,5.165,2.4211z"/>
  <path id="great_lakes" fill="#00F" d="m185.05,91.194-4.8992-0.88367-6.157,4.1118,5.3362,0.0905,0.95864-1.4624,1.7754,0.24211,1.372,1.6141,3.4547,0.65541-3.0512,2.0885-1.1298,2.8246,0.0807,4.6808,1.2105,0.80703,1.5334-1.3719,0-5.4878,3.2281-1.3719,3.0667-0.000001,0.48422,2.5018,1.2146,2.0274-1.2008,4.702,6.9816-1.6704-3.5252-1.0961,1.3368-6.3856-0.97081-1.4371-6.104-0.61793-2.1709-2.3819z"/>
  <path id="san_francisco" fill="#000" d="m100.44,92.523,2.5109,2.9674-2.0544,7.7609,0.22826,5.25,2.9674,5.4783,10.5-0.22826-2.7391-12.554,4.337-10.728-12.098-0.22826z"/>
  <path id="los_angeles" fill="#000" d="m104.09,114.89,5.7065,8.2174,3.4239,0.45653,3.8804,2.7391,6.0733-0.0277,1.637-24.478-11.866,0.0487,3.0695,12.265z"/>
  <path id="saint_paul" fill="#000" d="m113.15,101.2,60.342,0,0.0231-8.5545-6.1504-2.2597-49.848,0.32281z"/>
  <path id="phoenix" fill="#000" d="m124.12,126.22,4.8422,2.9053,8.2317-0.1614,0.64562-2.2597,5.6492,0,0-11.944-18.723-0.1614-0.16141,5.972z"/>
  <path id="denver" fill="#000" d="m125.73,102.01-0.48421,12.105,39.383-0.48422,0-11.621z"/>
  <path id="chicago" fill="#000" d="m174.64,95.875,8.7159,0-1.9369,4.1965,0.64562,6.9404-4.6808,7.1018-10.491-4.1965,0-6.779,7.7474-0.80703z"/>
  <path id="houston" fill="#000" d="m161.41,115.24-16.463-0.1614,0,11.944-6.6176,0.32282,3.7123,1.7754,2.9053,2.0983,0.32281,1.9369,3.2281,1.6141,0.96844-1.6141,3.7123-0.1614,4.6808,7.4246,3.5509,0.32281,0-4.3579,5.6492-2.4211,0.80702-1.4526,2.4211,0.16141,0-6.4562z"/>
  <path id="new_orleans" fill="#000" d="m166.41,111.53-2.2597,4.3579,8.2317,10.653-0.64562,7.2632,2.4211,0,4.5193,1.1298,0.96844-3.0667,0.80702-5.0036,0.00001-6.2948-3.0667-5.165z"/>
  <path id="indianapolis" fill="#000" d="m183.68,107.5,2.9053-2.5825,0.16141-5.165,4.5193-1.4526,0.48422,1.9369-0.96843,1.2912,2.2597,0.1614-1.1298,4.8422-0.32281,1.7755,3.5509-0.16141-5.4878,12.428-9.5229-2.4211-1.7755-2.9053z"/>
  <path id="jacksonville" fill="#000" d="m181.26,119.28,20.176,6.4562-4.3579,3.5509,0.32281,3.3895,2.5825,5.972,0,4.5194-3.5509-0.16141-3.7123-3.5509-0.32281-5.165-2.0983-1.9369-1.2912,1.2912-2.7439-0.80703-5.4878-0.80702z"/>
  <path id="washington_dc" fill="#000" d="m194.98,110.72,7.4246,2.7439,6.4562,2.5825,0.48422,5.0036-5.972,3.7123-12.59-4.0351z"/>
  <path id="philadelphia" fill="#000" d="m196.59,107.33-0.48422,2.4211,8.3931,3.0667,5.4878,2.0983,3.2281-4.6808-4.358-1.1298-7.1018-5.0036z"/>
  <path id="new_york" fill="#000" d="m215.48,109.59,7.4246-3.7123-1.614-1.7755,7.586-4.8422-2.0983-0.80703,0-3.8737-4.0351,0.1614-4.5194,5.0036-7.9089,0-1.7755,1.9369-6.1334,0-0.32281,1.7755,3.0667,1.2912,5.165,3.8737z"/>
  <path id="tiajuana" fill="#000" d="m116.86,127.03,2.2597,5.4878,5.165,3.7123-3.0667,1.2912,2.7439,2.7439,1.9369,0.16141,2.0983,4.3579,4.8422,3.8737,2.9053-0.32281,0.80703-4.3579-9.2001-12.267-0.16141-3.0667-3.8737-1.6141z"/>
  <path id="chihuahua" fill="#000" d="m129.12,130.09,0.48422,1.9369,7.1018,9.8457,24.695,6.2948,0.32281-6.4562-4.5193-0.80702-4.3579-6.6176-2.5825-0.1614-1.4526,1.1298-3.5509-1.7755-0.96843-1.7754-5.4878-3.3895-1.2912,0.96843z"/>
  <path id="ecatepec" fill="#000" d="m137.68,143.49-0.1614,3.7123,4.8422,4.1965,0.16141,3.8737,1.4526,2.7439,16.302,6.4562,5.8106,0.16141,1.614-0.64562,5.165,1.614-0.64563-3.0667-4.0351-1.4526-5.165,0.48422-9.8457-3.2281-6.1334-3.7123-0.16141-5.165z"/>
  <path id="mexico_city" fill="#000" d="m145.26,144.94-0.32281,2.0983,4.0351,2.2597-0.16141,4.5193,13.719,6.6176,2.2597-4.0351-2.7439-6.9404z"/>
  <path id="merida" fill="#000" d="m166.25,156.4-1.9369,3.7123,4.3579-0.32281,5.165,2.2597,0.64562,1.7755,3.0667-0.32281-0.80703-1.9369-1.614-1.2912,5.0036-0.96843,2.7439-2.5825,0.32281-1.9369,1.4526-1.2912,0.1614-2.4211-7.4246,0.32281-1.614,1.9369-0.32281,2.4211-0.96843,2.0983-7.1018-0.32281z"/>
  <path id="guatemala" fill="#000" d="m172.7,166.89,2.0983,2.2597,5.165,1.6141,2.7439-0.16141,2.0983,3.0667,2.4211,1.1298,4.8422,0,0.48421-6.779,0.64563-2.5825-2.5825-1.7755-9.2001-0.1614,0.80703-4.0351-3.7123,1.4526,0.80702,3.5509-4.8422,0.96843z"/>
  <path id="havana" fill="#000" d="m189.49,151.88,7.7474-0.64562,6.2948,1.2912,1.614,2.9053,7.7475,0,0-2.2597-14.204-6.779-6.779,0.16141-3.0667,2.7439z"/>
  <path id="gulf_of_mexico" fill="#00F" d="m163.34,137.36,0,12.267,2.5825,4.6808,7.2632,1.614,4.3579-5.972,9.3615-0.16141,4.5194-4.3579,5.4878-0.48421,0-1.4526-4.8422-3.2281-0.80703-5.6492-10.491-1.7755-1.4526,3.5509-9.6843-2.2597z"/>
  <path id="carribean_sea" fill="#00F" d="m186.26,152.69,1.614-0.64562,1.7755,1.614,6.6176-0.80703,6.2948,1.4526-0.48422,6.2948,5.8106,0.80703,4.8422,0.1614,15.818-0.48422,8.8773,5.0036-4.1965,7.2632-9.5229-2.0983-6.4562-2.0983-7.2632,4.0351-3.3895,5.4878-5.3264-2.4211-3.3895,1.7755-3.8737-2.5825,0-6.1334,1.4526-3.7123-3.5509-3.5509-7.7474,0.32281z"/>
  <path id="panama" fill="#000" d="m188.2,179.64,2.5825,1.2912,6.779,3.3895,4.3579-2.9053,2.0983,2.5825,2.2597-2.0983,0.16141-1.6141-5.165-2.9053-2.7439,1.7755-3.8737,0.1614-2.5825-3.8737-6.9404,0.48421,1.4526,2.0983z"/>
  <path id="nassau" fill="#00F" d="m198.37,143.97,0,0.80702,15.818,8.5545,5.6492-0.16141-4.8422-6.4562-6.9404-1.2912-0.80703-5.972-6.2948-1.2912,0,5.972z"/>
  <path id="port_au_prince" fill="#000" d="m203.69,156.4,0,3.3895,15.172,0.64562,0-5.972-4.0351,0.48421-0.48422,1.2912z"/>
  <path id="santo_domingo" fill="#000" d="m220.32,154.3-0.16141,5.8106,7.2632-0.16141-1.2912-5.972z"/>
  <path id="san_juan" fill="#00F" d="m228.07,155.43,0.64562,4.3579,10.007,5.6492-3.8737,7.9089,8.7159,5.4878,0.80703-15.172-3.7123-3.7123z"/>
  <path id="bogata" fill="#000" d="m207.73,180.77-3.3895,3.8737,0.32281,7.2632-3.3895,4.3579,4.1965,1.2912,4.0351,1.7754,6.1334,5.6492,4.5194,0.32281,0.80703,1.4526,2.4211,0-0.16141-5.6492-0.96843-5.165,5.6492,0-0.80702-9.8457-4.8422-0.1614-0.64562-2.0983-4.1965-0.64562,0.16141-2.9053-3.2281-2.2597,4.3579-5.8106-1.4526-2.0983-6.6176,3.8737z"/>
  <path id="caracas" fill="#000" d="m219.67,170.77,13.235,4.5193,0.80702-0.96843,9.2001,6.1334,0.48422,4.1965-2.4211,0.96843,0,1.4526,1.7755,1.4526-0.64563,1.614-7.2632,0.80703,0.48421,3.3895,0.48422,1.4526-3.8737,2.0983-2.9053-1.4526-0.80703-10.976-5.3264,0-0.80703-2.2597-3.7123-0.64562,0-2.5825-2.5825-2.0983z"/>
  <path id="quito" fill="#000" d="m200.3,196.59c0.64562,0.16141,9.8457,3.8737,9.8457,3.8737l0.1614,3.2281-3.0667,2.4211-2.0983-0.1614-1.614,2.9053-1.4526,2.0983-4.5193-2.9053,2.7439-1.4526-0.16141-2.2597-1.614,1.4526-0.32281-4.6808z"/>
  <path id="lima" fill="#000" d="m197.88,208.37-1.614,1.9369,1.1298,3.2281,2.2597,1.2912,7.9088,13.719,8.8773-6.9404-2.9053-4.6808,1.7754-3.2281,0-3.2281,6.1334-1.4526-0.32281-2.2597-6.2948-1.4526-3.7123-2.9053-2.5825,4.0351-2.7439,0.80703-3.5509,5.3264z"/>
  <path id="cuzco" fill="#000" d="m217.09,222.42-10.007,7.586,0.64562,2.5825,7.1018,4.6808,6.2948,3.8737,1.9369-2.0983,1.2912-1.4526-0.16141-12.751-3.2281,0.16141-0.48422-3.3895z"/>
  <path id="la_paz" fill="#000" d="m225.81,224.68-0.80702,18.077,2.9053,7.9089,2.7439-1.7755,4.6808,0.96843,3.3895-0.64562,3.5509,3.5509,6.779,3.8737-0.48422,4.1965,3.0667-0.16141,4.8422-0.96843,0.16141-5.6492-2.5825-3.0667-4.8422-1.2912,0-10.976-5.3264-3.3895-0.32281-5.3264-11.46-4.6808-0.16141-3.8737-3.3895,0.16141z"/>
  <path id="santiago" fill="#000" d="m223.71,239.2-2.9053,3.3895,0.96843,7.9089-0.96843,7.7474-2.2597,10.33,0.1614,6.2948-4.8422,9.6843-0.32281,9.0387,2.4211,0.96843-1.9369,9.2001-2.2597-1.1298-0.80703,9.8457,3.5509,8.0703,10.007,4.1965-0.48422-5.8106-7.2632-4.8422-2.9053-2.4211,4.3579-7.1018,0.48421-9.8457,1.6141-8.7159-0.64562-3.7123,3.0667-5.6492-1.9369-7.586,2.0983-5.165,3.2281-4.3579-0.64563-4.5194,2.0983-3.0667z"/>
  <path id="neuquen" fill="#000" d="m225,324.26,8.2317-0.80702-6.779-7.2632-0.64562-2.9053,6.2948-6.6176-0.64562-1.614-3.2281,0,0-3.3895,4.1965-1.2912,4.0351-5.165-2.9053-2.2597,5.8106-1.1298,0.1614-4.8422,8.0703-0.1614,2.9053-4.5194-26.309-5.0036-3.3895,5.165,1.1298,4.358-2.4211,8.3931-0.48422,10.491-3.8737,6.1334,9.3615,6.1334z"/>
  <path id="buenos_aires" fill="#000" d="m247.43,267.29-0.48422-2.2597,0-3.8737,0.96843-4.0351-9.6843-6.779-3.2281,0.64562-4.5193-0.96843-4.3579,5.3264,0.80702,4.6808-5.165,8.2317,1.7755,7.586,26.793,5.6492-2.4211-4.3579,0.48422-7.7474z"/>
  <path id="montevideo" fill="#000" d="m249.21,276.97,7.586,1.2912,2.9053-3.8737-2.2597-14.042-9.2001,2.0983z"/>
  <path id="parambaribo" fill="#000" d="m243.88,180.45,0.48422,4.3579-2.4211,1.4526,0.48421,1.2912,1.4526,1.2912-0.96843,1.7755,2.5825,6.4562,7.586-0.80703,0.64562-2.4211,2.9053,0.1614,0.96843,1.2912,3.0667,0.16141,2.7439-4.8422-5.0036-4.1965-7.586-0.1614z"/>
  <path id="andes" fill="#0F0" d="m247.43,225.64-15.818-25.179-3.2281-3.5509-4.5194,0.64563,0.64562,10.976-7.4246,3.5509-1.2912,4.6808,1.1298,3.3895,4.0351,0.64562,1.1298,2.4211,3.0667,0.1614,3.2281-3.2281,5.0036,0.32281,0,3.3895,10.814,4.8422z"/>
  <path id="manaus" fill="#000" d="m235.65,191.75,6.1334-0.64562,3.7123,7.586,7.9089-1.1298,1.7755,9.2001,6.2948,3.5509,3.8737,12.105-16.463,2.7439-3.0667-5.8106-11.621-15.656,0-4.6808,3.7123-3.5509z"/>
  <path id="brasilia" fill="#000" d="m248.89,226.45-4.0351,3.7123,0.32281,4.358,5.6492,4.5193-0.32281,9.8457,4.8422,1.1298,2.9053,4.3579,11.137-8.0703-3.8737-22.113z"/>
  <path id="belem" fill="#000" d="m264.06,191.43-2.7439,5.0036-3.5509,0-3.0667-1.614,1.1298,10.814,7.2632,4.3579,1.7754,6.779,10.653-5.165,11.46-6.1334-6.9404-1.1298-6.9404-3.7123-5.0036,3.5509,2.2597-4.1965-4.6808,0-3.0667,3.2281,0.64562-2.9053,3.3895-2.9053,0-2.7439z"/>
  <path id="salvador" fill="#000" d="m288.27,205.47,1.7755,0,6.4562,4.6808,3.2281,0.96844,0.32281,9.8457-6.9404,7.9088-2.2597,0.32281-0.48422,10.976-3.0667,7.4246-16.625-1.2912-5.3264-28.892z"/>
  <path id="rio_de_janeiro" fill="#000" d="m263.41,251.47,7.1018,5.4878,0,6.779-10.169,9.8457-1.7754-13.558-0.64562-4.6808z"/>
  <path id="sao_paulo" fill="#000" d="m264.54,251.15,5.8106-3.7123,16.302,0.96843-2.0983,3.2281-6.2948,0.16141-7.1018,4.1965z"/>
  <path id="reykjavik" fill="#000" d="m243.33,15.599-26.022,6.8478,8.2174,6.8478,19.63-0.45652,13.239,8.2174,0.45652,11.87,10.5,13.239,12.326,4.5652,6.8478-13.239,10.957-0.91305,6.3913-5.9348,14.609-1.3696,5.4783,9.1305,5.4783,6.3913,15.065-4.1087,2.2826-6.3913-6.8478-2.7391-10.5,2.2826-5.4783-6.3913,5.0218-3.6522,0-4.5652,10.044-4.1087-5.9348-8.2174,19.174-6.8478-23.283-0.91305-13.239-4.5652z"/>
  <path id="barents_sea" fill="#00F" d="m356.09,16.512-18.261,7.3044,6.8478,8.2174-11.413,4.1087-1.3696,4.5652-4.1087,2.7391,5.4783,5.4783,9.587-2.2826,6.3913,2.7391-0.91305,6.8478-15.365,5.0218,19.663,21.111,2.1766-5.8011,6.0962-2.8776-0.61793-6.4143,8.78-0.91305,6.2022-6.0179,13.239-3.1957,13.696-2.7391,10.957-10.5,26.022-5.0218,30.131,7.3044,21-0.91304,33.783-2.7391,3.1957-17.348,1.8261-13.696-51.587,3.6522z"/>
  <path id="north_sea" fill="#00F" d="m387.37,58.262-11.4,2.7344-5.8707,5.5107,3.3389,6.6129,5.9348,5.9348,3.1957,0.45652-2.1766,4.1087,5.5614,0.05539,2.4163-4.3761,6.2022-0.67331-0.60843-7.2213-4.9205-1.9732z"/>
  <path id="baltic_sea" fill="#00F" d="m408.19,75.538-0.14518,2.2205,6.9242-1.5749,3.5509,0.1614,2.7439,0.80703,2.0983-2.0983,0-4.0351,2.7439-2.0983,3.8737,2.2597,0.48421-2.4211-1.9369-1.9369,11.298-1.1298,0.80702-2.4211-11.137,1.7755-3.8737-1.7755-1.4526-4.5193,8.2317-5.6492-0.48422-1.1298-5.6492,0-3.8737,4.6808-6.4562,1.9369-0.32281,4.8422,3.8737,1.2912-5.0036,3.2281-0.96843,5.165-4.1965,0.64562z"/>
  <path id="english_channel" fill="#00F" d="m354.45,85.222,8.5545-2.0983,3.0667,0.96843-3.0667,4.1965,9.3615-2.0983,5.8106-0.32281,2.2597-1.2912-0.16141,2.5825-3.8737,1.4526-3.8737,1.1298-6.1334,0.32281,0.64562,3.0667,5.972,3.0667,0.48422,5.0036-16.786,0.64562-8.3931-4.6808z"/>
  <path id="gulf_of_lions" fill="#00F" d="m378.33,112.5,7.9089-2.9053,9.8457,2.0983,8.8773,2.0983,6.1334-0.1614,0.16141-3.5509-5.165-2.7439-6.4562-4.5193-3.2281-2.0983-5.6492,2.2597-2.9053-1.1298-3.3895,0.64562-0.48422,3.3895-3.0667,1.4526-4.1965,2.9053z"/>
  <path id="alboran_sea" fill="#00F" d="m365.26,117.5-0.96843,2.0983,2.4211,1.2912,7.2632-0.80703,4.8422-3.0667,10.007-0.16141,8.5545-1.1298,4.5194,1.2912,2.7439-2.2597-17.916-4.8422-9.2001,3.3895-4.3579,3.5509z"/>
  <path id="adriatic_sea" fill="#00F" d="m409.65,98.78-3.5509-1.6141-1.7755,0.48422,0.16141,2.4211,3.3895,2.9053,0.80703,1.2912,4.5193,1.9369,3.7123,1.2912,1.4526,2.2597,1.2912-0.1614-0.1614-4.6808-3.3895-1.9369-4.8422-1.9369z"/>
  <path id="ionian_sea" fill="#00F" d="m419.01,111.21-2.7439-0.32281-1.614-1.7755-0.80703,1.1298,1.7755,1.614-1.1298,1.2912-0.48421,1.7755-2.9053,0-0.1614,3.3895-5.8106-2.5825-3.0667,2.5825-1.2912,4.0351,1.614,2.7439,5.972,0,4.8422,3.3895,4.3579,0.96843,1.4526,1.7755,2.2597-0.96843-0.32281-4.0351,6.4562-1.2912,5.3264-4.1965-5.972-3.3895-2.5825-0.80703-1.4526-3.0667z"/>
  <path id="aegean_sea" fill="#00F" d="m446.75,117.7-9.5458-0.91305-2.7162-7.6023-3.0552-1.2082-3.2281,1.9369,2.4211,4.8422-2.2597,2.7439,3.7123,2.4211,24.534,0.80704-0.1614-2.7439-6.7676,1.3304z"/>
  <path id="eastern_mediterranean" fill="#00F" d="m431.27,122.67-3.2281,2.9053,4.0351,1.9369,6.2948,1.2912,3.5509,0.96843,4.1965-1.2912,6.2948,0.64562,3.7123-6.9404-1.4526-0.96844-2.2597,0.32282-2.4211,0-2.5825-0.16141-3.5509,0.16141-3.3895-0.80703-6.4562-0.32282z"/>
  <path id="black_sea" fill="#00F" d="m447.25,95.068,3.0667,1.9369,1.7755,3.2281,4.8422-2.0983-1.614-2.0983,5.8106-2.4211,3.0667-0.1614-3.0667,3.3895-1.4526,2.2597,8.2317,4.3579,0.32281,2.7439-1.9369,1.2912-5.6492,0.32281-5.972-2.9053-5.165-0.16141-3.2281,1.9369-3.8737,0.32281-3.0667-1.4526,0.32281-3.2281,2.5825-3.8737z"/>
  <path id="caspian_sea" fill="#00F" d="m493.74,94.261,0.32281,2.9053-3.2281,0.32281-2.7439,2.0983,2.9053,3.3895,5.6492,3.0667,0.80703,1.6141-3.3895,0.1614-0.32281,1.7755,2.2597,1.9369,0.16141,5.3264-5.8106,0.32281-2.4211-1.9369-2.0983-0.1614,0-3.3895,2.9053-2.7439-5.8106-5.4878-0.16141-3.0667-1.7755-0.80703,8.8773-5.6492z"/>
  <path id="red_sea" fill="#00F" d="m450.97,138.49-2.9053-5.8106,5.165,4.5193,0.32281-4.6808,1.6141,4.6808,5.4878,7.586,2.9053,2.9053-0.16141,4.8422,8.3931,9.0387,0,5.8106,1.9369,2.4211,2.9053,1.9369,15.656-6.4562,4.8422,6.9404-17.432,3.0667-6.2948-0.48421-2.5825-4.6808-5.1535-6.078-5.0819-7.8143-1.063-5.3149z"/>
  <path id="arabian_sea" fill="#00F" d="m486.15,131.87-3.2281,0,0.1614,2.7439,4.1965,5.0036,1.9369,3.8737,0.64562-1.9369,1.9369,0,1.2082,3.0275,4.2796,0.52337,4.0351-4.0351,0.48422,3.0667,3.2281,1.9369,2.0983,0.32281,3.3895,2.7439-5.3264,5.4878,0.32281,2.7439-6.6176,3.8737-4.6808,0.64562-2.0983,2.5825,5.4878,7.4246,19.369,4.1965,28.569,1.1298-4.1965-10.007-2.9053-4.5194-0.32281-5.972,0.16141-6.9404-1.7755,0.16141-1.9369,3.8737-5.0036-3.8737-5.6492-7.4246-16.463,0.32281-3.7123-1.4526-0.1614-2.7439-3.2281-0.32281-2.5825,1.9369z"/>
  <path id="mozambique_sea" fill="#00F" d="m495.03,173.35,4.6808,42.772-13.558,10.33-4.5193,5.3264-7.7475,5.6492-0.1614,4.8422,1.614,1.9369-3.0667,5.0036,1.4526,6.9404,2.5825,2.0983,4.6808-0.32281,5.165-13.719,13.558,2.7439,45.834,65.845-13.696,38.804-25.109-0.91305-7.7609-3.6522-11.87,0.45652-5.4783,3.1957-16.891,2.7391-3.1957,1.8261-9.1305-2.7391-14.609,3.6522-29.217-0.45652-32.87,3.6522-23.739-0.45652-53.87-36.522-51.131-6.8478,170.28-39.261,7.7609,2.2826,2.7391-1.8261,10.5,0,12.326-12.783,0.45652-5.9348,6.3913-2.2826-0.91304-11.87,11.87-7.3044-0.45652-15.522-4.1087-10.044,15.522-15.978,7.7609-6.3913,4.5652-13.696z"/>
  <path id="bay_of_bengal" fill="#00F" d="m556.96,166.25-1.2359,9.5316,4.4315,8.7293,27.848,2.2826,10.237,4.2749,0.8806-4.1412-6.3082-5.6349,0.32157-6.8452-1.4791-4.0884-0.45653-6.3913-5.9348,1.3696,0-7.3044-6.8478-6.8478-7.7609,1.3696-0.45652,3.1957z"/>
  <path id="gulf_of_thailand" fill="#00F" d="m599.94,170.44-1.4526-0.1614-0.96843,7.4246,1.614,1.4526,0.80703,3.7123,4.6808,3.3895,2.0983,2.4211,0.32281,4.1965,1.1298,2.5825-2.2597,2.7439,3.2281,5.6492,4.1965,2.9053-1.1298,5.8106,5.6492,0.80703,2.9053-6.2948-0.80702-3.7123-1.9369-2.5825,0-7.1018-5.165-15.011-3.2281,2.4211-1.4526-3.8737z"/>
  <path id="south_china_sea" fill="#00F" d="m613.99,178.35,5.6492,15.979,2.4211,0.16141,12.59-10.491,0.96843-3.5509,6.779-9.5229-1.2912-6.779,2.2597-6.4562,0.96843-7.2632-3.5509-1.4526-6.4562,0.48422-3.3895,0.64562-2.4211-0.32281-0.80703,1.6141-5.0036,0.32281-0.80703,2.4211,1.9369,2.5825-2.9053,1.9369-3.7123-0.1614,0.32281-3.2281,1.614-1.2912,0.16141-2.5825-3.3895,0.1614-3.8737,4.1965-0.1614,2.0983,6.779,7.7474,0.32281,8.7159-4.8422,2.2597z"/>
  <path id="celebes_sea" fill="#00F" d="m621.73,207.24-2.7439,6.2948,10.007,0.96844,3.3895,2.2597,8.0703,0.48421,14.526,0.48422,12.751-1.7755,6.4562-3.3895-1.614-3.7123-5.3264-6.4562,2.5825-2.5825-11.621-16.302-2.9053,0.64562,0.64562,3.0667-4.6808-0.96843,0-3.5509-3.3895,2.5825-5.972,2.9053-4.6808,4.1965,2.9053,4.1965-1.9369,1.9369-0.32281,4.0351-2.7439,0.80702-0.32281,5.165-3.3895,1.1298-1.614-2.7439z"/>
  <path id="yellow_sea" fill="#00F" d="m644.17,107.82,3.3895-0.16141,0.1614,0.96844-2.0983,2.4211,0.96843,2.0983,3.5509-2.4211,4.0351,0,0,4.0351,3.5509,0.1614-0.64563,7.4246,5.3264-0.48421,3.2281,7.7474-9.2001,6.779-9.2001,6.4562-2.4211-1.1298-2.7439,6.9404-5.4878-0.80702,5.8106-7.7474,4.5193-4.1965,0.64563-4.3579-1.1298-0.96843-0.16141-4.0351-4.5193-5.6492,3.8737-3.2281,3.2281,0,0-2.7439-5.6492,0.16141-1.7754,1.1298-1.1298-2.2597-2.4211-1.4526,4.5194-2.9053z"/>
  <path id="sea_of_japan" fill="#00F" d="m663.38,121.38,1.2912,2.4211,5.8106-4.8422,7.7474-0.1614,1.4526-3.8737,3.5509,0.80703,3.0667-3.8737,0.96844-5.6492-1.1298-2.0983,2.2597-2.2597,2.2597-0.32281,0.80702-5.6492,0.32281-11.944-1.9369-0.32281-1.2912,2.4211-0.32281,4.8422-13.558,12.59-5.6492-0.48422-3.7123,2.9053-0.32281,2.9053-5.0036,1.614,0,1.2912,3.7123,4.6808z"/>
  <path id="coral_sea" fill="#00F" d="m617.05,218.22,10.814,31.313,10.007-5.0036,5.8106-0.48421,2.7439-2.5825,0.64562-4.6808,4.3579-1.2912,6.2948-5.4878,2.7439,0.1614,1.1298,3.0667,2.7439-0.32281,0.80703-7.586,5.6492-1.4526,4.5194,2.7439,5.6492-0.16141-2.7439,6.4562,9.5229,6.1334,2.7439-3.2281-0.16141-9.0387,2.2597-3.3895,3.8737,8.0703,3.7123,2.0983,1.6141,8.3931,5.3264,3.2281,3.5509,4.8422,6.9404,7.9089-0.48421,14.042-6.779,8.8773-0.1614,4.3579-3.7123,5.3264,0,6.4562,39.221,5.6492,0.80703-2.7439,9.2001-4.8422,3.0667-4.3579,2.0983-3.5509,2.7439-1.4526-0.32282-2.9053-5.0036-4.8422-12.267-26.148-6.6176-5.8106-7.2632-19.691-15.011,0-8.0703-1.7755-5.972-1.7755-5.3264-5.4878-4.5194,3.7123-4.6808-0.48422-1.4526-1.614-4.6808,0.48421-1.4526-3.2281,1.4526-1.7755-8.5545-5.3264,1.2912,3.5509-6.4562,3.8737-13.235,2.0983-16.302,1.4526z"/>
  <path id="bering_strait" fill="#00F" d="m1.1413,28.838,26.707,8.9022-11.87,1.3696-2.7391,3.1957-6.3913,0.45652-1.8261,3.8804,3.4239,2.0544-5.0218,2.0544,1.3696,3.8804,6.3913,1.3696-4.5652,3.1957,4.1087,6.1631,6.3913,2.0544,1.8261,1.8261,3.8804,0.22826-22.37,8.4457z"/>
  <path id="arctic_ocean" fill="#00F" d="m0-1.2928,0.91305,29.674,29.217,9.1305,33.326,1.3696,28.304-0.45652,10.957-12.783,59.805-9.587,13.239-5.0218,26.935-0.91305,41.544,1.3696,5.4783,2.2826,68.022-5.9348,14.609,5.9348,145.63,0,52.044-3.6522-2.2826,24.196,11.87-0.45652,39.718-6.3913,18.261-2.2826,32.413,0.91305,0.91305,6.3913,15.065,2.2826,5.9348-3.6522,10.5,1.3696,5.0218,6.3913,2.7391-4.1087,13.239,2.7391,14.152-1.3696,10.5-0.91304,10.5,2.7391,15.065,0.45652,1.3696,4.1087,20.087-0.91305,19.63,0.45652,7.3044,1.8261,7.3044,2.2826,7.7609,2.2826,0.45652-50.218z"/>
  <path id="north_atlantic" fill="#00F" d="m259.86,89.096-2.5825,6.779-12.59-1.9369-0.32281-4.8422,2.2597-2.2597-9.6843,1.9369-0.64562,5.165,1.9369,0.32281,3.8737-0.96843,5.8106,4.8422-9.0387,1.9369-6.1334,3.8737-4.1965-3.5509-5.165,3.5509,1.614,2.9053-10.33,4.5194-3.8737,4.1965,0.96843,5.8106-12.267,8.0703,0.96843,6.779,7.1018,2.5825,1.2912,4.5193,7.1018,3.5509,101.69-31.958,37.769-3.5509,0.96843-5.165-0.96843-3.2281-8.0703-4.5193z"/>
  <path id="mid_atlantic" fill="#00F" d="m217.25,147.36,3.3895,5.3264,6.6176,0.1614,14.204,5.972,4.8422,5.3264-1.1298,14.688,6.2948,6.2948,7.2632,0.32281,8.5545,8.7159,0.32281,3.2281-2.7439,2.0983,6.1334,0.1614,3.2281,0.80703,6.1334,3.3895,9.3615,1.2912,7.4246,4.8422,3.2281,0.80703,47.776-28.246-1.2912-3.3895-8.3931-7.4246,0-6.779,2.7439-5.972-3.2281-7.2632,10.169-15.495,3.3895-0.80702,3.0667-3.5509,0.32281-4.5194,6.6176-5.3264,2.2597-3.7123-1.7755-1.4526-5.3264,0-1.1298-4.6808-37.607,3.5509z"/>
  <path id="south_atlantic" fill="#00F" d="m300.86,211.44,0.16141,9.8457-7.1018,8.2317-2.4211,0.32281-0.32281,10.653-6.4562,12.428-6.4562-0.48421-6.779,4.6808,0,7.2632-14.042,14.849-6.2948-0.16141,0.64562,4.8422-3.8737,3.8737-7.4246,0.1614-0.32281,3.7123-4.6808,1.4526,1.614,1.9369-4.6808,6.2948-3.5509,0.96843,0,2.2597,3.5509,0,0.80703,2.4211-6.2948,6.2948,0,1.9369,6.4562,7.7474,12.751-7.586,169.8-40.674,0-4.8422-5.0036-6.779-0.80703-4.1965-1.4526-4.0351,0-4.8422-6.779-10.007-0.16141-5.3264,5.0036-8.0703,0.16141-3.5509-2.7439-3.3895,0.32281-3.3895-2.0983-5.6492-6.779-8.7159,2.4211-6.779-0.32281-3.5509-2.5825-1.9369-4.8422,1.1298-5.3264-5.4878-11.298,4.3579-8.3931-0.96843-5.0036,2.4211-11.621-7.9089z"/>
  <path id="antarctic_ocean" fill="#00F" d="m630,277.19-81.261,35.609-15.522,38.804-3.6522,6.3913,0,3.6522,8.2174-5.0218,10.044-1.3696,5.9348-4.1087,44.283-1.8261,12.783-2.7391,7.3044,2.7391,9.1305-3.1957,10.044,3.1957,21.913-0.91304,3.6522,0.45652,33.783,0,20.087,4.1087,17.804,4.1087,21.457,4.5652-3.6522,4.5652-12.783,1.8261,6.3913,8.2174-14.609,3.6522,9.587,4.5652,23.283,4.5652,31.044-0.45652,1.8261-101.35-21.913-1.8261-12.326,10.044-10.957,11.87-7.3044-3.1957-38.348-5.9348-4.5652,1.3696-9.1305-12.326-6.8478-1.8261-2.2826-4.5652-6.3913-0.91305-5.4783-6.3913-6.8478-1.3696-9.1305,1.8261-4.1087,3.6522-8.6739,0.91304-2.2826,0.45653z"/>
  <path id="antarctic_sea" fill="#00F" d="m210.91,236.56-210,66.652,0.45652,86.283,37.435,1.8261-10.5-9.587,18.717,1.3696,0.91305-3.1957-22.37-5.4783,26.478-2.7391,26.478-6.3913,42.913,1.8261,33.783,2.7391-9.1305-6.3913,47.935,0.91305,13.696,0,2.7391-10.044,10.5-3.6522,31.957-10.044,0.91305,0.91304-19.174,11.413,7.7609,6.8478-1.3696,9.1305-20.544,5.4783-15.065-1.3696-10.5,4.5652,13.696,3.1957,39.717,5.0218,64.826-5.0218-17.348-4.5652,24.196-6.3913,15.522-1.3696,15.065-8.2174-53.413-35.609-49.304-7.7609-14.152,9.1305-8.6739,0.45652-11.87-4.1087-5.0218-9.587,2.7391-9.587,0.45652-6.3913,0.45653-12.783,6.3913-9.587-1.3696-8.2174,2.7391-14.152,0.45652-10.5z"/>
  <path id="indian_ocean" fill="#00F" d="m496.81,173.99,4.8422,42.288-12.912,11.298,1.614,6.4562-2.2597,8.3931,11.298,2.9053,46.485,66.176,83.931-36.155,1.9369-4.5193-4.8422-11.621,0-8.0703-9.6843-32.281-14.204-8.7159-10.169-13.719-6.9404-8.8773-24.856-1.614-5.165,2.2597-9.3615-7.1018-2.5825-2.2597-26.47-0.64562z"/>
  <path id="suva" fill="#00F" d="m696.63,207.24c0.32281,1.614,4.8422,3.7123,4.8422,3.7123l4.1965,2.7439-0.96843,2.2597,7.7474,7.7474,5.4878,1.2912h14.526l8.3931,20.983,7.1018,5.165,12.267,27.116,3.5509-0.32281,3.2281,4.5193,30.021,3.8737-0.96843-60.688z"/>
  <path id="south_pacific" fill="#00F" d="m659.5,182.39,11.944,17.109,3.2281,1.2912,1.614,4.8422,6.1334-1.9369,113.95,20.983,0.64562-72.632-112.02-30.344-4.5194,0.96843-1.2912,2.9053-4.8422-0.32281-4.5194,2.2597-0.1614,4.1965-1.7755,4.8422-9.0387,6.9404-6.9404,4.6808-4.3579,0.96842-2.2597,1.6141,0,5.165,3.5509,1.9369-0.64562,8.3931,9.0387,5.4878-0.32281,5.8106z"/>
  <path id="central_pacific" fill="#00F" d="m1.2912,301.83,208.86-66.499-4.5194-3.8737,0.32281-3.2281-7.4246-12.267-3.5509-5.165,4.5194-4.1965-2.9053-3.5509,3.8737-8.0703,3.2281-3.2281-0.64562-7.1018-1.6141-1.9369-3.8737,2.5825-7.1018-3.2281-16.141,17.432-137.52-42.288-4.5193,2.2597-5.165-4.8422-5.4878-3.2281-20.983,0z"/>
  <path id="honolulu" fill="#000" d="m32.604,158.18,4.5193-2.5825-6.779-6.4562-7.7475-0.96843-1.6141,1.614,5.8106,3.5509z"/>
  <path id="east_pacific" fill="#00F" d="m188.2,181.42-4.1965-4.5194-1.6141-4.5193-8.0703-2.2597-5.4878-4.5193-8.3931,0.32281-17.109-6.4562-2.9053-4.5194,0-3.2281-3.2281-3.2281-4.5194,1.2912-6.1334-4.1965-1.614-3.8737-5.8106-4.5194,2.2597-1.2912-4.5193-3.8737-1.2912-4.5194-3.5509-2.9053-2.5825,0.32281-7.7474-12.59-2.9053-8.7159,2.5825-7.7474-1.9369-4.5193-6.4562-2.9053-2.2597-7.4246-2.5825-0.64562-4.1965,1.6141-3.2281-2.2597-0.64562-4.8422-3.5509-0.32281-13.235-8.7159-19.046-0.96843-10.653,7.7475-31.958,10.33,0,67.79,18.077-0.64563,2.5825-2.9053,9.0387,1.2912,6.779,6.779,136.55,43.257z"/>
  <path id="west_pacific" fill="#00F" d="m796.7,58.429-18.4-5.165-4.1965,3.2281,3.2281,2.5825-8.0703,1.9369-14.526,5.165-12.267,0.32281-4.1965,1.9369,1.2912,4.1965-13.881,13.881-3.2281-1.9369-0.64562-5.165-1.2912-2.2597,1.6141-6.4562,5.4878-2.9053,11.298-5.165,0.32281-3.8737-6.779,4.1965-8.0703-0.32281-4.5194,4.1965-8.3931,0.32281-3.2281-0.32281-15.495-0.32281-13.881,9.3615,4.5194,2.2597,5.165-0.32281,1.614,1.6141,4.1965-1.9369,2.5825,11.621-3.5509,8.3931,4.8422,2.5825,13.558-5.165,1.614,3.5509-12.912,4.1965-4.5193,2.5825-2.5825,1.614-3.5509-1.9369,2.5825,4.8422-0.32281,2.9053-1.9369,4.8422-0.96843,4.1965,108.46,29.053z"/>
  <path id="antarctica" fill="#0F0" d="M4.0716E-8,401.9,0.32281,389.63l42.934,2.2597-10.653-8.0703,15.818,0.32281,2.5825-4.5194-19.046-4.5194,23.242-1.9369,21.305-7.1018,82.962,5.8106-8.7159-7.1018,54.555,1.614,5.165-2.2597,1.2912-9.3615,36.8-11.944-16.463,10.007,8.0703,7.1018-1.2912,8.0703-17.755,5.165-16.141-1.9369-12.267,6.779,18.077,4.1965,38.737,4.8422,65.531-5.4878-15.818-5.4878,21.305-5.4878,17.432-0.32281,14.204-9.6843,26.793,0.32281,30.344-3.8737,29.376,0.64562,13.558-3.8737,10.33,3.2281,3.8737-2.9053,15.818-2.2597,7.1018-2.2597,9.6843-0.32281,7.7474,2.5825,22.92,0.64562-3.2281,8.7159h7.7474l4.8422-4.5193,10.976-0.64563,5.165-4.1965,44.548-1.9369,11.621-0.96843,6.4562,2.2597,9.0387-3.5509,8.7159,3.5509,20.337-0.96843,6.779,0.32281,4.8422-0.64563h32.604l14.849,5.4878,36.478,6.4562-2.5825,3.2281-11.298,3.2281,5.165,6.779-12.59,5.8106,9.6843,4.5194,23.565,5.4878,31.958-0.64562,1.2912,11.298z"/>
  <path id="dublin" fill="#000" d="m355.25,77.152-1.9369,5.972,1.1298,1.6141,9.3615-2.4211,1.1298,0.1614,1.1298-4.3579-0.96843-3.3895-3.2281-1.4526z"/>
  <path id="edinburgh" fill="#000" d="m361.22,67.629,7.9089-0.48422,3.8737,5.0036-6.2948,5.165-1.1298-2.9053-3.8737-1.7755z"/>
  <path id="cardiff" fill="#000" d="m370.1,75.376,3.3895,5.0036-0.48421,5.0036-8.8773,2.2597,2.5825-3.3895-1.4526-2.0983,1.9369-4.6808z"/>
  <path id="london" fill="#000" d="m374.3,81.187,3.8737-1.9369,3.3895,0.96843-2.4211,5.165-5.6492-0.1614z"/>
  <path id="manchester" fill="#000" d="m372.68,72.955-2.2597,2.4211,3.7123,5.165,4.0351-2.0983z"/>
  <path id="oslo" fill="#000" d="m388.66,58.429,14.849-3.5509,10.007-10.653,25.663-4.8422,7.7474,1.9369-5.3264,3.0667-2.0983-1.6141-4.8422-0.32281-1.9369,2.7439-7.7474-0.48422-4.358,1.2912-6.779,2.4211-7.2632,7.4246-2.9053,1.9369,0.16141,4.3579,0.64562,2.4211-9.2001,6.4562-5.8106-2.4211z"/>
  <path id="stockholm" fill="#000" d="m401.09,68.274,4.6808,7.2632,2.2597-0.1614,0.80703-2.2597,4.1965-0.80703,0.64562-5.0036,4.8422-2.4211-3.8737-1.4526,0.80703-5.0036,6.9404-2.0983,3.5509-4.5193,4.1965-1.6141-1.1298-3.8737-3.5509-1.6141-10.814,4.0351-10.33,9.3615,0.16141,4.0351,0.96843,2.5825z"/>
  <path id="copenhagen" fill="#000" d="m400.12,68.759-5.6492,3.0667,0.80703,6.6176,4.1965-1.6141,3.5509,0.96843,4.8422,0-0.96843-1.9369-2.0983-0.32281z"/>
  <path id="helsinki" fill="#000" d="m429.02,45.516,4.8422,0,1.6141-2.2597,4.8422,0.48422,0.96843,2.0983,2.7439,2.0983-1.7754,1.7755,1.2912,4.6808,1.614,2.5825,1.9369,1.9369-6.6176,3.7123-9.2001,1.9369-4.6808-1.4526-2.0983-4.1965,8.7159-5.0036-0.32281-2.7439-2.0983,0-0.48421-3.5509z"/>
  <path id="amsterdam" fill="#000" d="m393.51,78.927-5.165,1.1298-1.7754,3.7123,4.0351,1.7755,2.9053-3.8737z"/>
  <path id="brussels" fill="#000" d="m381.56,84.576,4.6808-0.32281,4.8422,2.0983,0.48422,2.9053-7.4246-2.2597z"/>
  <path id="picardy" fill="#000" d="m380.92,85.868,1.7755,0,1.9369,2.0983,2.9053,0.48422-2.5825,1.7755-9.2001,0.80703-0.96844-1.9369,5.6492-1.2912z"/>
  <path id="nantes" fill="#000" d="m375.11,91.678-0.32281-2.0983-8.0703,0.96843,0.80703,1.7755,4.3579,1.9369,2.0983,2.4211,2.5825,0.1614,0.80703-5.4878z"/>
  <path id="bordeaux" fill="#000" d="m377.2,95.068-0.48421,2.2597-3.0667-0.1614,0,4.6808,1.614,1.614,2.0983,0,2.0983-3.2281-0.48422-4.8422z"/>
  <path id="paris" fill="#000" d="m378.01,91.517,0,3.0667,1.7755,0.48422,0.48421,2.9053,4.5194,0,0.1614-7.2632z"/>
  <path id="marseilles" fill="#000" d="m381.08,98.78-3.0667,4.8422,5.0036,0.16141,2.2597-2.2597,3.2281-0.16141,1.614,1.1298,2.9053-1.6141,0.1614-3.8737-2.4211-1.9369-1.9369,2.2597z"/>
  <path id="strasbough" fill="#000" d="m385.6,90.71,0,6.2948,2.2597-0.32281,2.7439-2.4211,3.0667-1.9369-0.32281-2.5825-4.8422-0.64562z"/>
  <path id="bilbao" fill="#000" d="m356.38,102.98,1.2912,3.5509,5.972-0.32281,11.783-0.1614,5.6492-2.0983-6.1334,0-2.5825-2.0983z"/>
  <path id="lisbon" fill="#000" d="m356.87,107.5,0.32281,2.9053-1.2912,2.2597,1.1298,0.32281,0.1614,3.0667,4.1965,0.32281-0.48422-6.4562,2.4211-3.2281z"/>
  <path id="madrid" fill="#000" d="m364.61,107.01,10.814-0.80702-4.0351,8.5545-9.5229-0.64563-0.16141-3.2281z"/>
  <path id="cordoba" fill="#000" d="m362.19,114.6,10.491,0.96843-0.16141,0.96843-7.586,0.64562-0.96843,0.96844-1.7754-1.7755z"/>
  <path id="barcelona" fill="#000" d="m375.59,106.53,5.3264-1.7755,2.9053-0.64562-0.32281,1.4526-7.4246,4.3579,1.2912,2.5825-4.0351,3.7123-0.96843-1.7755z"/>
  <path id="hamburg" fill="#000" d="m394.15,79.25,0.16141,3.3895,7.4246-0.32281,1.1298-4.1965-2.9053-0.80703z"/>
  <path id="cologne" fill="#000" d="m393.67,82.962-2.0983,2.4211,0.48422,3.3895,1.9369,0.32281,0.1614,1.7755,3.8737-2.0983z"/>
  <path id="munich" fill="#000" d="m394.15,91.355,0.64562,1.4526,10.169,0.16141,1.4526-2.4211-2.7439-3.3895-4.8422,1.9369z"/>
  <path id="frankfurt" fill="#000" d="m395.28,83.608,3.3895,5.165,4.3579-2.2597-1.2912-3.5509z"/>
  <path id="berlin" fill="#000" d="m403.67,78.443,5.165,0.1614,0,3.3895-0.00001,2.7439-1.9369,0.96843-2.9053,0.64562-1.4526-3.2281z"/>
  <path id="zurich" fill="#000" d="m393.51,92.969,2.2597,0.80703,1.614,1.4526,1.1298,1.4526-3.2281-0.48422-1.2912,1.2912-2.5825-3.0667z"/>
  <path id="milan" fill="#000" d="m393.67,97.973,0.1614,3.2281,2.9053-1.1298,2.0983-0.16141,0.1614-2.7439-3.3895-0.48422z"/>
  <path id="alps" fill="#0F0" d="m397.54,93.292,0.48421,1.9369,1.7755,1.4526,3.2281-0.96843,5.165-1.1298-2.2597-1.2912-1.614,0.64562z"/>
  <path id="florence" fill="#000" d="m398.35,100.39,2.0983,2.0983,1.9369-2.9053-0.16141-2.7439-2.2597,0.48422-0.1614,2.0983z"/>
  <path id="venice" fill="#000" d="m402.38,101.36,0.80703-2.2597-0.80703-2.5825,6.2948-1.2912-0.48422,2.2597-2.5825-0.96843-1.1298,0.64562-0.32281,3.0667,1.2912,1.4526,1.7755,1.4526,2.2597,2.0983-1.7755,0z"/>
  <path id="rome" fill="#000" d="m401.9,102.17-1.4526,0.64562,8.5545,5.6492,0.80702-1.7755z"/>
  <path id="naples" fill="#000" d="m410.94,106.85-1.614,1.7755,2.7439,1.9369-0.64563,2.7439-6.6176,1.1298,0.1614,1.1298,5.6492,1.9369,0.1614-2.9053,2.7439-0.16141,1.4526-2.5825-1.2912-1.7755,1.1298-1.2912,2.2597,1.4526,1.2912-0.80703-2.5825-1.614-5.6492-2.4211-0.80703,0.48422z"/>
  <path id="g_dansk" fill="#000" d="m409.49,78.927,5.165-2.2597,4.3579,0.32281,3.2281,0.80703,3.3895,0.32281,0.32281,2.0983-16.463,0.96843z"/>
  <path id="wronclaw" fill="#000" d="m409.81,82.317,0.48422,2.2597,3.3895,1.6141,2.7439,0,2.0983-5.165z"/>
  <path id="warsaw" fill="#000" d="m427.08,78.766,3.3895,1.4526-0.1614,1.4526-1.1298,2.0983,0.80703,1.9369-11.783-1.4526,1.1298-2.9053,7.4246-0.32281z"/>
  <path id="krakow" fill="#000" d="m417.56,84.576-0.80702,2.5825,4.1965,2.0983,6.1334,0.1614,2.5825-2.9053z"/>
  <path id="prague" fill="#000" d="m409.97,85.061-5.972,2.0983,2.9053,2.7439,2.0983,0.80703,1.2912-0.80703,6.9404,0.1614-0.32281-2.4211-3.8737-0.96843z"/>
  <path id="vienna" fill="#000" d="m407.39,91.033-1.1298,1.2912,2.5825,2.4211,4.0351-0.1614,2.4211-2.5825,0-1.6141-5.3264,0z"/>
  <path id="bratislavia" fill="#000" d="m415.94,90.871,1.614,1.6141,4.5194-0.96843,4.8422-0.32281,0.64562-1.2912-6.4562-0.1614-3.0667-1.2912-0.32281,1.6141z"/>
  <path id="vilnius" fill="#000" d="m423.53,76.506,5.165,1.1298,2.2597,1.6141,5.3264-4.1965-3.3895-2.4211-9.0387,0.1614z"/>
  <path id="riga" fill="#000" d="m426.11,70.05,5.0036,1.6141,0.16141-2.9053-1.9369-2.0983,10.653-0.96843-1.7754,4.0351,1.1298,3.7123-3.8737,0.32281-2.4211-1.9369-1.7755,0.80703-7.1018-0.32281z"/>
  <path id="minsk" fill="#000" d="m436.92,74.731,7.1018-0.64562,5.0036,5.8106-1.9369,2.4211-8.8773,1.9369-7.4246-1.4526,0.16141-2.5825z"/>
  <path id="moldova" fill="#000" d="m440.47,84.899,0.96843,6.779,2.7439,3.3895-2.2597,3.5509-3.3895-1.4526,0.48421-3.5509-3.0667-2.7439-8.3931,0.80703,0.64562-2.4211,2.5825-2.0983,0-3.7123z"/>
  <path id="budapest" fill="#000" d="m414,94.906,1.9369-2.9053,1.4526,0.80703,9.3615-1.2912-0.1614,1.2912-3.2281,3.2281-4.0351,0.32281-3.5509,0.64562z"/>
  <path id="zagreb" fill="#000" d="m413.36,95.39-4.1965-0.32281-0.48421,2.4211,2.5825,2.7439,5.0036,2.5825-1.9369-3.7123,2.9053-1.1298z"/>
  <path id="sarajevo" fill="#000" d="m417.88,97.327,1.9369,0.64562,0.32281,3.8737,1.7755,1.9369-1.4526,1.4526-3.0667-2.2597-1.7755-3.3895z"/>
  <path id="tirana" fill="#000" d="m420.3,106.37-0.1614,3.8737,3.2281,3.0667,1.9369-1.7755-0.64563-4.0351,0.80703-1.7755-2.7439-2.2597z"/>
  <path id="belgrade" fill="#000" d="m420.14,96.682,3.5509,0,5.0036,4.1965-1.4526,3.7123-2.7439,0-3.5509-2.7439z"/>
  <path id="bucharest" fill="#000" d="m427.56,92.485,7.586-0.96843,2.9053,1.7755-0.48422,3.7123,3.2281,1.7755-1.1298,2.7439-5.165-0.48422-2.2597,1.4526-2.2597-0.48422-5.4878-5.6492,3.0667-3.2281z"/>
  <path id="sofia" fill="#000" d="m429.02,102.17-1.6141,3.3895,2.7439,1.4526,5.0036,0,2.9053-1.9369,1.1298-2.7439-4.358-0.48421-2.2597,1.4526z"/>
  <path id="athens" fill="#000" d="m425.95,106.2,1.1298-0.16141,4.1965,1.7755-3.3895,1.7755,2.2597,5.3264-2.7439,2.2597-3.2281-1.4526-0.32281-1.9369,2.4211-2.2597-1.1298-3.5509z"/>
  <path id="sevestapol" fill="#000" d="m442.73,91.678,7.7474-1.9369,14.526,2.7439-3.8737,0.96843-6.779,2.7439,2.0983,1.9369-4.0351,1.6141-1.9369-2.9053-2.5825-2.9053-2.7439,1.9369z"/>
  <path id="kiev" fill="#000" d="m441.77,83.931,7.586-2.0983,2.7439-0.1614,3.2281,3.2281,6.4562,2.2597,4.5194,0.96843-1.4526,3.3895-14.042-2.2597-8.2317,1.7755z"/>
  <path id="fes" fill="#000" d="m363.81,119.92,3.0667,1.6141,5.6492,0.1614,1.1298,3.8737,0.32281,2.7439-4.6808-0.80703-0.96844,3.3895-4.1965,1.614-6.1334,2.4211-0.16141,2.4211-10.491,0.64562,1.2912-1.614,3.2281-0.32281,3.8737-4.0351,0.32281-4.8422,7.2632-5.0036z"/>
  <path id="arkhangelsk" fill="#000" d="m526.18,37.123,6.4562-2.2597,22.92-0.96843,13.881,12.267,1.2912,12.59-121.7,0.64562-5.4878-8.3931,2.5825-2.5825-2.9053-2.5825,4.5193-4.1965,21.628,5.4878,55.846-3.8737z"/>
  <path id="saint_petersburg" fill="#000" d="m441.6,63.594-1.614,4.8422,9.6843-0.32281,5.4878-7.1018-7.7474-0.96843z"/>
  <path id="ryazan" fill="#000" d="m440.31,69.727,0.96843,2.9053,4.8422,0,4.8422,8.3931,6.1334,3.5509,4.5194,0.96843,5.165-6.1334-12.912-13.881-3.5509,4.1965z"/>
  <path id="moscow" fill="#000" d="m458.39,61.011-3.2281,4.1965,13.235,13.881,12.912-4.5193,6.4562-13.881z"/>
  <path id="volgograd" fill="#000" d="m467.43,81.025-3.8737,5.165,4.5193,1.2912-6.779,11.621,9.3615,3.5509,6.779,1.2912,4.8422,2.9053,2.2597-0.64562-2.2597-3.8737-2.2597-2.9053,0.64562-2.9053,3.2281-1.2912,0-2.9053-3.2281-2.2597-0.32281-4.1965,4.5194,0.96843,4.5194-3.5509-7.1018-8.3931z"/>
  <path id="yekaterinburg" fill="#000" d="m489.06,60.366-5.4878,13.235,7.1018,9.6843,6.4562,0.32281,3.2281,2.5825,4.8422-1.6141,6.779,1.2912-1.614-2.5825,2.9053-5.4878,10.653-0.32281,6.4562-3.2281,8.0703,3.8737,8.3931,0,7.4246,5.165-0.96843-23.242z"/>
  <path id="novosibirsk" fill="#000" d="m570.08,69.404-14.526-1.2912,0.96843,17.109,3.5509,2.2597,0.96843-1.9369,10.33,2.9053,8.0703-2.2597,6.779-0.64562,4.8422,1.5911,2.8661-2.3542,2.2988-1.8194,7.4246,0.64562,2.9053,1.9369,6.1334-6.4562,4.5194-6.1334z"/>
  <path id="siberia" fill="#0F0" d="m557.49,33.249,14.849,12.267,0.96843,14.204-18.077,1.6141,0,4.8422,62.625,4.1965,16.141-19.369-1.614-16.463-6.4562-6.1334-21.628-0.64562-31.635,2.5825z"/>
  <path id="yakutsk" fill="#000" d="m609.47,86.19,6.779,0.64562,1.614,2.5825,9.3615-1.2912,2.5825-2.2597,4.1965,2.2597,7.4246-1.9369,2.5825-4.5193,12.267-1.9369,11.621-20.337,20.66-20.337-17.755-0.96843-2.9053,3.5509-6.4562-4.1965-1.6141-3.2281-9.6843,0.32281-9.3615,1.6141-6.4562-1.9369,1.9369,17.755z"/>
  <path id="vladstivock" fill="#000" d="m657.89,81.671,2.2597,6.1334,3.5509,0.32281,4.8422,3.8737,7.1018-1.2912-3.5509,7.4246-2.5825,0-0.32281,3.5509,4.8422,0.64562,12.59-11.621,0.32281-4.5193,3.5509-4.1965-1.2912-2.2597-2.5825-1.2912-8.9671-1.4087,11.915-10.037,28.183-1.1441,6.1322-4.2424,6.9911,0.12421,7.1018-3.5968,1.9855,2.935-17.048,10.784,1.3533,12.965c9.8494-3.745,11.632-10.851,14.469-17.518l15.271-3.2874,18.427-6.0131,6.0942-6.2279,18.861,5.4688-0.74016-7.2031-21.636-6.7466-33.192-0.68363-9.0387,0.32281-4.8422-2.5825-13.558-0.32281-12.267-3.2281-12.912,3.2281-20.014,20.66z"/>
  <path id="algeirs" fill="#000" d="m372.98,121.28,6.3913-3.6522,15.978-0.91305,0,4.5652-1.1413,2.9674,4.5652,5.0218,0,4.5652-23.739-5.9348z"/>
  <path id="tunis" fill="#000" d="m395.58,116.72,2.7391-0.45652,2.7391,1.3696-0.45653,4.1087-1.3696,2.2826,2.5109,1.5978,0.45652,1.3696-2.5109,3.1957-4.5652-5.9348,1.1413-3.8804z"/>
  <path id="timbuktu" fill="#000" d="m351.98,164.65,13.239,0.22826-1.5978-13.011-0.22826-8.4457,0-2.5109-5.0218-2.5109,0.68478-2.7391,9.8152-4.1087,17.576,25.109-0.45652,7.5326-10.272,2.0544-8.2174,4.337-2.9674,6.3913-4.5652-0.22826-2.7391-4.5652-4.7935,0.68479-2.7391-3.8804,0.22826-1.8261z"/>
  <path id="west_sahara" fill="#0F0" d="m339.2,152.33,2.7391,5.0218-0.91304,4.7935,3.4239-0.22827,5.25,4.1087,1.5978-2.2826,13.467,0.45652-2.7391-11.413,0.45653-10.957-5.25-3.8804-10.044,0.91304z"/>
  <path id="east_sahara" fill="#0F0" d="m370.24,128.13,28.989,6.1631,32.413,7.0761-0.45653,11.87-2.2826,10.957-21,4.5652-10.044,1.1413-10.044-4.5652,0.22826-8.9022-18.717-25.109z"/>
  <path id="benghazi" fill="#000" d="m403.11,125.39,5.4783,0.68478,8.6739,4.7935,3.6522,1.3696-0.45653,5.7065-20.772-4.5652,1.1413-3.6522z"/>
  <path id="tripoli" fill="#000" d="m421.83,130.87,0.22826-4.1087,5.9348-0.91305,4.1087,2.5109,0.45652,12.326-11.641-2.5109z"/>
  <path id="alexandria" fill="#000" d="m433.01,128.59,5.7065,1.5978,5.4783-0.22826,0.91304,5.4783-11.87-1.5978z"/>
  <path id="suez" fill="#000" d="m453.56,128.36,1.5978,4.7935-2.5109-1.5978,0,4.337-5.4783-3.8804,9.1305,15.294-4.337,3.4239-2.0544-0.91304-3.8804-14.38-1.5978-5.7065,2.5109-1.1413,4.5652,1.1413z"/>
  <path id="cairo" fill="#000" d="m438.03,135.66,0.68478,9.3587,8.4457-0.68478-1.3696-7.9892z"/>
  <path id="aswan" fill="#000" d="m433.24,135.21,3.4239,0,1.5978,10.957,9.587-0.45652,2.2826,4.1087-17.12,0.22826z"/>
  <path id="monrovia" fill="#000" d="m340.34,162.83-1.3696,3.1957,0,4.7935,7.7609,7.0761,2.7391,4.1087,10.728,8.4457,3.1957-2.0544,6.8478-1.3696,1.3696-8.4457-4.7935-1.5978-6.6196,0.68479-3.8804-4.1087-4.5652,0-3.1957-4.337,0.22826-2.9674-5.0218-3.4239z"/>
  <path id="accra" fill="#000" d="m370.92,187.94c0-0.91304,2.2826-10.272,2.2826-10.272l-7.0761-2.0544,2.5109-4.337,9.1305-4.5652,7.5326-1.5978,4.337,4.337-3.8804,3.4239-0.45653,4.7935-2.7391,3.1957v4.337l-8.6739,3.6522z"/>
  <path id="lagos" fill="#000" d="m383.94,184.06,0-3.4239,2.0544-2.2826,0.22826-4.1087,18.489,5.7065-1.8261,5.4783-3.1957-1.1413-2.9674,3.8804,0,1.3696-6.3913,0.22827-2.5109-4.337z"/>
  <path id="ngazargamu" fill="#000" d="m391.24,168.76-4.337,4.7935,17.804,5.7065,2.2826-2.0544,4.7935,5.4783,7.9892-2.2826,7.3044-5.7065-0.91305-4.1087,2.5109-5.0218-30.587,5.25z"/>
  <path id="douala" fill="#000" d="m398.09,189.99,1.5978-4.5652,4.5652,0.68478,2.2826-7.5326,5.4783,4.7935,7.7609-2.0544,7.9892-6.1631,2.5109,4.5652,6.3913,8.2174-7.9892,1.5978-3.1957,1.3696-5.4783-2.9674-2.0544,3.6522,0.22826,2.7391-3.4239,7.9892-1.8261,5.7065-4.5652,2.0544-5.4783-0.22826-6.1631-7.3044,2.7391-7.7609z"/>
  <path id="kinsasha" fill="#000" d="m403.79,211.45,9.8152-2.5109,5.7065-14.152,0-2.7391,0.91304-2.7391,5.9348,2.9674,10.044-2.7391,6.8478,0.68479,2.7391,5.7065-2.5109,3.1957,0.45652,3.6522,1.3696,3.8804-1.8261,5.4783,2.9674,6.1631-4.1087,0.68479-1.5978,6.6196,2.0544,3.1957-1.8261,1.1413-3.8804-3.1957-5.9348-1.8261-4.7935-0.22826-1.1413-3.8804,0-5.25-4.7935,0.22826,0,2.5109-5.0218-0.68478-1.5978-3.6522-8.9022-0.22826z"/>
  <path id="luanda" fill="#000" d="m404.94,215.33,7.9892-0.22826,2.2826,3.4239,5.4783,1.3696,0.91305-2.9674,2.2826-0.45652,1.8261,9.587,4.7935-0.22826,0,3.4239-4.5652,0,0.45652,7.5326,2.2826,2.2826-0.45653,1.5978-3.8804,0.22826-0.22826,7.7609-2.5109,0.22826-0.45652,14.837-2.2826,0.68478-3.6522-0.91305-3.6522-1.3696-1.1413-6.3913-0.91305-5.25-5.4783-9.1305,0-7.9892,4.337-7.5326,0-3.1957-3.1957-3.1957z"/>
  <path id="cape_town" fill="#000" d="m412.24,262.58,7.5326,2.5109,2.5109-2.7391-0.22827-6.1631,4.5652,3.4239,10.957,8.4457,1.8261,0.45653,1.5978,3.6522-3.4239,3.8804-11.185,0-1.3696,1.3696-7.9892-1.8261,0-6.3913z"/>
  <path id="johanesburg" fill="#000" d="m427.31,257.78,10.5,9.3587,2.2826,0.45652,1.5978,3.6522,8.4457-8.2174-1.1413-5.4783-2.2826-7.0761-6.8478-0.91305-5.25,6.6196-0.22827,1.3696z"/>
  <path id="harare" fill="#000" d="m422.51,249.57,2.2826,0,0.22826-7.7609,4.7935-1.3696,0.45653-1.5978-2.7391-2.5109-0.45652-5.4783,3.8804-0.68478,0.68479-4.1087,4.337,0.91305,4.7935,4.1087,2.7391-2.2826-2.0544-3.4239,1.3696-5.4783,4.1087-0.68478,3.4239,1.5978,3.6522,0.68478,0.68479,4.337-0.45653,5.25,2.7391,1.8261-1.3696,4.1087-3.1957-3.1957-2.2826-2.5109-5.0218,2.0544,0.22826,2.0544,4.337,1.8261,0.91305,7.7609-2.9674,5.0218-7.5326-1.3696-5.4783,6.8478-0.68479,1.5978-6.3913,0-1.5978,0.91305-3.6522-2.2826z"/>
  <path id="quelimaine" fill="#000" d="m455.84,226.51,4.337-0.68478,4.1087-0.91305,1.1413-3.1957,1.3696,13.239-11.641,8.9022,1.1413,10.957-6.3913,2.5109-1.8261-5.9348,3.1957-6.1631-0.68478-7.7609-3.6522-2.5109-1.1413-1.5978,4.1087-0.91305,6.1631,5.7065,1.8261-5.25-3.1957-2.7391z"/>
  <path id="antananarivo" fill="#000" d="m487.11,226.28,2.2826,8.4457-8.4457,22.37-5.9348-0.68478-2.0544-6.8478,4.1087-5.25-2.0544-3.4239,0-3.6522,7.3044-4.5652z"/>
  <path id="nairobi" fill="#000" d="m445.79,191.82,6.3913-1.1413,3.4239-2.9674,5.7065,3.8804,7.5326-1.1413-0.45653,12.783-5.4783,8.4457,4.1087,9.3587-3.1957,0.91304-0.68479,1.8261-7.5326,0.91304-1.5978-4.337-6.8478-2.7391-2.7391-5.7065,1.5978-6.3913-1.3696-5.9348,2.2826-3.8804z"/>
  <path id="khartoum" fill="#000" d="m456.75,148.67,2.9674,3.4239,0.22826,5.25,2.5109,3.1957-3.4239,2.0544,0,4.7935-4.7935,8.2174-3.8804-1.5978-0.45653-2.9674-2.5109,1.1413,0.68478,2.7391-2.5109,1.8261-2.2826-0.91305-1.3696-25.109,8.2174-0.22826,2.5109,0.68478z"/>
  <path id="al-fashir" fill="#000" d="m432.33,150.96,8.9022-0.22826,1.5978,25.337-0.91305,1.8261-5.7065,0.45652-2.9674-2.7391-2.2826,3.1957-3.8804-7.5326,2.5109-7.0761z"/>
  <path id="juba" fill="#000" d="m448.76,173.1,5.0218,3.1957,0,3.6522-2.7391,1.8261,3.6522,4.337-2.9674,4.1087-6.8478,0.45652-7.0761-2.2826-6.3913-8.6739,2.0544-2.5109,3.1957,2.7391,5.4783-0.45652,2.0544-2.7391,2.7391,1.5978,1.3696-1.8261z"/>
  <path id="mogadishu" fill="#000" d="m463.6,161.91,10.272,14.38,17.348-2.0544-1.5978,5.25-6.6196,11.413-13.696,12.326,0.22826-13.467,7.3044-1.1413,6.1631-6.6196-10.728-5.0218-2.7391-2.9674-5.25-6.6196-4.5652,0.45652,0.22826-4.337z"/>
  <path id="addis_ababa" fill="#000" d="m459.26,168.99,4.5652-0.45652,9.3587,10.044,8.6739,3.6522-5.4783,6.1631-5.9348,0.68478-8.6739,1.8261-5.25-4.337-4.5652-4.7935,2.5109-1.3696,1.1413-4.7935z"/>
  <path id="constantinople" fill="#000" d="m434.38,108.27,5.0218-2.2826,3.4239,1.8261,4.7935-1.1413-0.22826,5.4783-10.728-0.45652z"/>
  <path id="izmir" fill="#000" d="m437.58,113.07,12.783-0.68479,4.5652,4.337-2.2826,1.5978-3.6522,0.45652-2.5109-1.8261-9.1305-0.68478z"/>
  <path id="sinope" fill="#000" d="m447.85,106.67,2.0544-1.3696,5.4783,0.22826,5.25,2.7391,6.8478,0,1.1413-1.3696,5.0218-0.22826,0,3.8804-25.337,0.68478z"/>
  <path id="ankara" fill="#000" d="m451.96,112.15,16.207-0.68478,0.91305,4.5652-8.2174,0.91304-3.8804,0.91304-1.3696-0.91304z"/>
  <path id="yerevan" fill="#000" d="m474.56,106.45,0,3.8804-5.0218,1.5978,0.45653,3.8804,5.4783,0.22827,1.8261-3.4239,2.7391-0.68479-1.5978-3.6522z"/>
  <path id="baku" fill="#000" d="m466.11,101.65,11.413,3.1957,4.7935,2.9674,3.8804-1.3696,1.3696,2.0544-2.2826,3.1957,0,2.0544-4.337-2.2826-1.3696-3.1957-5.0218-2.5109-5.9348,0z"/>
  <path id="aleppo" fill="#000" d="m457.21,118.77,4.5652-1.5978,7.0761,0.45653,0.45652,2.7391-9.1305,0.68479-0.22826,2.2826-3.6522-1.1413z"/>
  <path id="tyre" fill="#000" d="m455.15,125.85,3.1957,1.5978,1.5978-3.4239-3.4239-1.1413z"/>
  <path id="jerusalem" fill="#000" d="m454.93,126.76-0.91305,1.1413,1.8261,4.5652,2.5109-4.5652z"/>
  <path id="petra" fill="#000" d="m459.49,126.31,4.337-1.8261,1.1413,3.6522-4.5652,0.91305,1.1413,2.0544-2.7391,2.7391-3.1957,0.22826,0-1.3696,1.5978-1.3696z"/>
  <path id="damascus" fill="#000" d="m461.09,121.51-1.1413,4.337,4.7935-2.0544,2.9674-1.3696,0-1.5978z"/>
  <path id="mosul" fill="#000" d="m469.08,117.4,1.5978-1.1413,5.9348,0.68478,2.7391,3.6522-2.0544,1.3696,0.91305,2.7391-2.5109,2.2826-7.3044,0.91304-2.9674-0.22826-0.68479-2.9674,5.4783-3.8804z"/>
  <path id="baghdad" fill="#000" d="m469.31,129.04,6.8478-1.1413,2.9674-2.7391,4.1087,2.2826,0.22826,2.7391-2.7391,1.5978-3.1957,2.2826z"/>
  <path id="kuwait" fill="#000" d="m482.09,132.47-4.337,2.7391,2.9674,2.2826,3.1957,0.22826-1.1413-2.2826z"/>
  <path id="dubai" fill="#000" d="m487.11,145.25,3.6522-2.9674,1.3696,2.7391,6.3913,0.45653,2.2826-3.1957,1.1413,3.6522-2.9674,2.7391-5.0218,0z"/>
  <path id="al_medinah" fill="#000" d="m456.29,134.75,4.1087,0,1.5978-1.8261,7.0761,9.587-6.3913,3.4239-6.3913-9.1305z"/>
  <path id="arabian_desert" fill="#0F0" d="m463.83,133.38-1.5978-3.6522,5.0218-0.68479,11.87,9.3587,5.9348,0,2.5109,3.6522-2.2826,2.7391-18.489-7.9892z"/>
  <path id="mecca" fill="#000" d="m466.79,145.71-2.5109,1.3696,0,4.7935,4.337,5.7065,3.6522,3.4239,6.8478-0.22826,0.22827-6.8478-9.3587-9.587z"/>
  <path id="riyadh" fill="#000" d="m468.39,139.32c1.3696,1.3696,20.772,8.6739,20.772,8.6739l-10.044,3.6522-8.2174-7.5326z"/>
  <path id="khali_desert" fill="#0F0" d="m480.49,152.56-0.68478,8.2174,2.5109,0,2.5109-2.9674,8.2174-0.68479,2.0544-1.5978,3.8804-0.68478,0.68479-5.25-5.9348,0-4.1087-1.8261z"/>
  <path id="sana_a" fill="#000" d="m472.27,161.91,0.22826,5.25,3.1957,3.6522,15.978-6.1631,2.2826-3.1957-1.3696-3.4239-7.3044,0.45652-4.1087,3.6522z"/>
  <path id="muscat" fill="#000" d="m493.73,158.26,2.0544-2.2826,4.1087-0.68479,0.45652-6.1631,3.1957-3.6522,5.9348,3.4239-4.5652,5.4783,0,3.1957-5.25,2.7391-4.7935,0.91305z"/>
  <path id="tehran" fill="#000" d="m477.75,115.58,0.68478-2.2826,3.8804-0.45652,6.6196,3.6522,1.8261,2.0544,7.5326-1.5978,2.9674-3.1957,2.9674,0.91305-2.9674,7.3044-7.3044,5.25-7.5326-4.337-4.7935,2.7391-3.4239-2.9674,2.7391-2.2826z"/>
  <path id="susa" fill="#000" d="m483.91,126.08,2.7391-2.0544,7.0761,4.337,7.3044,8.2174-2.5109,2.9674-10.957-8.2174-3.8804-0.45653z"/>
  <path id="isfahan" fill="#000" d="m504.23,115.35,3.8804-0.22826,3.4239,2.9674,0.91305,2.2826-2.2826,2.5109,0.22826,4.337,2.2826,2.5109-1.1413,3.1957,5.25,6.6196-3.1957,2.2826-5.9348,0.45653-3.1957-1.1413-0.68479-2.5109-2.9674-0.91304,0-2.0544-6.1631-7.7609,7.3044-5.7065z"/>
  <path id="astana" fill="#000" d="m484.6,94.577,0-3.8804-2.2826-1.8261,0.22826-2.0544,4.5652,1.1413,3.1957-3.4239,6.8478,1.1413,2.7391,1.1413,5.25-1.3696,8.6739,2.0544-2.2826-4.1087,3.1957-5.0218,7.9892,0.22826,8.4457-2.5109,7.7609,4.1087,7.3044-1.1413,7.7609,5.9348-1.3696,8.9022-10.272,0.45652-2.2826,1.5978-27.62-1.1413-5.25,2.2826-5.7065,0.68478-0.91305,8.6739-8.9022-3.8804-3.1957-2.9674,3.1957-1.5978,3.1957,0-0.22826-4.7935-6.1631,0.45652z"/>
  <path id="almaty" fill="#000" d="m506.28,98.229,6.3913-2.5109,26.935,1.3696,2.7391-2.0544,9.8152,0.22826,2.5109-9.587,5.7065,3.8804,1.5978-2.7391,7.5326,1.8261-2.0544,3.4239-0.22826,1.8261-6.6196-0.22826-0.45652,4.5652-5.7065,0.22826,1.3696,4.337-1.5978,2.0544-5.4783-1.8261-8.2174,0.45652-5.9348,0.68479-5.4783,3.4239-5.4783-2.0544-1.3696-4.1087-8.9022,0.45652-2.5109-2.7391,0,1.8261-4.7935-0.68479z"/>
  <path id="himalayas" fill="#0F0" d="m529.57,108.5,6.3913-3.6522,13.011-1.1413,5.25,2.0544,6.3913,13.239,0.45653,5.9348,10.5,7.9892,15.065,0.22826,4.5652,0,5.0218,6.6196-2.5109,4.5652-6.1631-0.45652-5.7065,0.22826-5.7065-3.1957-4.5652-0.45653-16.663-5.0218-4.337-8.6739-7.3044,0.45652-2.5109-5.7065-5.25-4.1087-7.3044-1.8261-1.8261-4.1087z"/>
  <path id="samarkand" fill="#000" d="m502.4,97.773,3.1957,0.68478-0.22826,2.7391,5.25,1.3696,0.68478-2.0544,3.1957,2.9674,6.8478-0.91304,1.3696,3.4239,5.9348,2.5109-3.4239,2.5109,1.8261,5.0218-5.25,0.22826-4.337,3.1957-3.4239,0.45652-1.8261-2.7391-3.1957-2.9674-3.6522-0.22826-4.1087-1.5978-3.4239,4.1087-0.68479-4.5652-2.0544-3.4239,3.8804-1.1413,2.9674-1.8261z"/>
  <path id="kabul" fill="#000" d="m513.82,121.51,7.0761-3.6522,6.6196-0.91305,8.6739,1.8261-1.5978,3.6522-2.5109,1.1413-1.5978,4.7935-3.1957,0.22826-3.4239,1.3696,0.22826,2.9674-5.9348,0.91304-4.7935-1.3696,1.1413-2.7391-3.1957-3.8804z"/>
<!--  <path id="path4243" fill="none" d="m514.27,134.29,11.185-0.22826-0.22827-3.8804,5.7065-0.91305,2.0544-5.4783,2.9674-2.2826,0.91305-2.0544,3.8804,2.7391,0.45652,2.7391,2.2826,3.1957-6.8478,8.6739-3.6522,0.22826-1.5978,2.7391,2.9674,4.7935-4.337,0.22826-1.5978,1.3696-5.0218-4.7935-9.3587,0.91305,2.9674-2.7391z"/>-->
  <path id="karachi" fill="#000" d="m530.71,130.19,2.2826-5.9348,2.7391-1.3696,1.1413-3.8804,3.8804,3.6522,0,2.9674,2.0544,2.9674-2.2826,3.6522-3.1957,3.8804-4.337,0.22826z"/>
  <path id="lahore" fill="#000" d="m513.82,134.07,6.3913,1.1413,5.4783-0.91305-0.91305-3.8804,4.5652-1.1413,3.4239,7.9892-1.3696,1.8261,2.9674,3.4239,0,2.2826-5.0218,0.91305-1.5978,0.68478-3.4239-4.7935-9.8152,0.45653,3.4239-2.9674z"/>
  <path id="ahmedabad" fill="#000" d="m535.04,137.26,3.8804-0.45652,1.5978-2.7391,5.7065,3.8804-6.8478,11.185-2.9674,0-1.8261,3.4239-5.7065-5.25,6.3913-1.8261,0-3.6522-2.2826-2.7391z"/>
  <path id="delhi" fill="#000" d="m541.89,133.15,2.0544-4.7935,6.1631-0.91305,4.337,8.9022-6.8478,1.8261z"/>
  <path id="mumbai" fill="#000" d="m539.38,150.04,3.8804-5.0218,4.337,8.9022,0,7.7609,0,9.1305-3.1957,2.5109-5.25-10.728z"/>
  <path id="lucknow" fill="#000" d="m548.06,151.87-3.8804-7.9892,2.9674-4.337,9.1305-1.5978,9.1305,2.0544-0.68479,9.8152-15.065,2.0544z"/>
  <path id="kolkata" fill="#000" d="m548.51,153.01,17.348-2.9674,3.8804,4.337-11.185,8.6739-10.044-0.45652z"/>
  <path id="chennai" fill="#000" d="m548.97,163.51,8.2174,1.1413-2.2826,11.641-5.25,5.25-3.8804-3.4239-1.1413-4.337,3.4239-2.5109z"/>
  <path id="colombo" fill="#000" d="m550.11,182.91,5.9348,4.5652,4.337-2.5109-4.7935-7.9892z"/>
  <path id="dhaka" fill="#000" d="m566.77,140,9.3587,2.0544,5.4783,3.4239,4.5652-0.68479-4.337,8.4457-3.1957-2.9674-8.2174,0.91304-0.45652,1.8261-4.337-4.5652z"/>
  <path id="ulan_bator" fill="#000" d="m569.28,92.751,1.3696-2.5109,14.837-3.1957,6.3913,2.2826,4.7935-5.0218,6.6196,0.45652,2.2826,2.7391,10.044,0.45652,1.3696,1.8261,11.641-1.1413,1.3696-1.8261,4.7935,2.7391-1.3696,2.0544,5.9348,0.45652,2.9674,2.5109-5.0218,0.68478-6.8478,3.1957-6.1631,0.22826,1.5978,2.9674-5.0218,2.2826-8.6739,1.1413-1.1413,1.5978-4.5652-0.22827-3.4239-2.2826-12.326-0.22826-5.7065-5.4783-5.9348,0.22826-1.5978-2.0544,1.1413-2.0544z"/>
  <path id="urumqi" fill="#000" d="m555.56,105.4,1.614-3.2281-1.9369-3.0667,6.4562,0-0.32281-5.0036,15.333,0.80703,0.32281,4.5193,7.2632,0.32281,6.2948,5.165,8.0703,0.32281,0,7.9088-2.4211,6.4562-34.702-1.9369z"/>
  <path id="lhasa" fill="#000" d="m561.69,118.79,34.056,2.2597,5.972,13.235-5.4878,4.0351-5.6492-6.779-18.723,0.16141-10.007-7.4246z"/>
  <path id="lanzhou" fill="#000" d="m642.72,103.94-7.9089,5.165-7.4246,0.48422-1.614,8.3931-27.439,6.2948-0.80703-4.8422,2.5825-5.8106,0-7.7474,2.4211-1.1298,5.972,3.2281,5.3264-1.7755,12.912-3.5509-1.7755-3.8737,7.9089,0.32281,5.3264-3.5509,3.8737,0.32281z"/>
  <path id="chengdu" fill="#000" d="m593.81,145.43,3.2281-6.6176,5.3264-4.1965,14.365-0.80703,4.6808,11.137-8.3931,3.2281-2.7439-1.1298-1.9369,1.6141-4.3579,0.32281-3.3895,2.0983-2.0983-0.64563-1.614-2.4211z"/>
  <path id="xi_an" fill="#000" d="m598.81,125.57,3.7123,8.0703,14.836-0.68227,18.413-11.746-1.3815-2.9442-8.4642,1.0074z"/>
  <path id="shenyang" fill="#000" d="m642.39,105.07,1.7755,2.2597,3.7123,0.16141,0.32281,1.2912-2.0983,2.7439,0.96843,1.1298,1.9369-2.0983,4.5194-0.48422,5.165-4.0351,2.2597,0.64562,0.32281-2.0983,2.0983,0,1.7755-2.4211,1.4526,1.614,1.7755-0.64562,0.16141-5.4878,2.5825-0.48422,3.3895-5.6492-6.1334,1.1298-5.0036-3.8737-3.7123,0-4.1965-7.7475-10.653,1.6141-3.7123,5.4878-5.165,0.1614-1.2912,2.2597,5.3264,0.96843,3.2281,2.9053,0.32282,7.586z"/>
  <path id="jinan" fill="#000" d="m643.36,108.14-2.0983-2.7439-6.1334,4.6808-2.0983,2.7439,0.80703,3.8737,3.2281,4.1965,3.5509,1.6141,0.64562-2.2597,4.1965-2.9053,2.9053-0.16141,0-1.7754-4.5194,0.48421-2.4211,1.2912-4.6808-4.6808z"/>
  <path id="beijing" fill="#000" d="m628.03,110.24,5.6492-0.32281-1.614,2.9053,1.2912,4.0351-5.972,0.96843z"/>
  <path id="wuhan" fill="#000" d="m639.33,123.31-3.0667,5.6492,1.1298,8.0703-14.688,7.1018-4.3579-10.33,18.239-12.59z"/>
  <path id="shanghai" fill="#000" d="m639.97,124.12,1.9369-2.0983,3.5509,5.3264,1.2912,5.972-8.7159,0.96843-0.64562-5.165z"/>
  <path id="hangzhou" fill="#000" d="m635.78,138.49,2.7439-1.1298-0.32281-2.2597,8.0703-1.1298,0.16141,2.2597-5.165,4.0351z"/>
  <path id="guangzhou" fill="#000" d="m619.63,150.91-0.16141,3.7123-1.614,1.1298,0.16141,2.0983,2.2597,0.64562,3.0667-1.6141-1.9369-2.5825,0.96843-2.9053,2.5825-0.48422,0.64562-7.4246-11.944,5.165,0.64563,1.9369z"/>
  <path id="shantou" fill="#000" d="m635.13,139.13,5.165,1.7754-3.3895,5.3264-6.6176-4.1965z"/>
  <path id="hong_kong" fill="#000" d="m626.58,143.49,2.9053-0.80703,6.779,4.0351-1.1298,1.4526-4.5194,1.2912-1.7754-1.2912-1.6141,2.0983-1.7754,0z"/>
  <path id="pyongyang" fill="#000" d="m654.5,109.92,4.5194-3.3895,2.4211,0.80702,0.32281-2.0983,2.5825-0.32281,1.2912-1.9369,1.1298,1.6141-2.2597,1.614,0.32281,1.7755-4.6808,2.0983-0.64562,1.9369,1.1298,1.4526-1.7755,0.64563-2.0983-0.32281-1.7754,0.1614z"/>
  <path id="seoul" fill="#000" d="m658.53,114.76,1.4526-0.64563,1.9369,7.1018-4.3579,0.48421z"/>
  <path id="busan" fill="#000" d="m660.63,113.95,2.5825,1.9369,0.32281,4.6808-1.4526-0.1614z"/>
  <path id="asahikawa" fill="#000" d="m690.49,80.703,3.0667-2.2597,3.2281,10.653-3.5509,8.2317,5.0036,3.0667,13.558-5.165,1.1298,3.2281-13.074,3.8737-6.1334,3.5509-4.6808-1.7755,0.64562,1.7755-1.7754,0.80702-0.96844-2.2597,1.2912-1.614,2.7439-0.96843,0.80702-4.1965,0.32281-14.365z"/>
  <path id="sapporo" fill="#000" d="m687.26,108.14,2.9053-1.614,1.614,3.3895-0.1614,2.7439-2.0983,3.2281-0.32281,3.0667-3.0667-5.3264z"/>
  <path id="kyoto" fill="#000" d="m685.33,113.95-2.5825,2.5825-2.9053-0.96843-0.48421,3.3895-5.0036,0.16141,0,1.9369,4.8422-0.32281,7.1018-5.0036z"/>
  <path id="tokyo" fill="#000" d="m686.94,116.21,2.0983,3.3895-0.1614,1.2912-1.7755,0.96844-2.4211-1.1298-4.0351,1.1298-1.1298,1.7754-1.614-2.4211,2.7439-0.80703z"/>
  <path id="okinawa" fill="#00F" d="m648.36,143.81-0.1614,3.3895,7.9088-3.0667,6.2948-3.8737,4.3579-4.3579,2.2597-5.3264-2.7439-0.80703z"/>
  <path id="fukuoka" fill="#000" d="m665.8,128.8,3.0667,1.1298,0.1614-2.9053,5.4878-2.4211,4.1965,0.64562,0.1614-1.2912-1.2912-2.2597-3.5509,0.16141-0.16141-2.4211-3.3895,0-6.2948,5.4878z"/>
  <path id="taipei" fill="#000" d="m644.81,142.84,2.7439,0.96843,0,4.8422-1.9369,1.4526-2.9053-0.96843z"/>
  <path id="yangon" fill="#000" d="m586.71,145.26,6.4562-0.16141,6.1334,6.9404,0,2.5825-5.4878,2.2597-0.96843,1.7755,2.7439,3.8737-0.80703,3.7123,0.64562,2.7439-0.48421,2.9053-2.4211,0.80703-0.48422-11.944-2.4211,3.0667-3.3895-0.80703,0-5.165-3.8737-4.0351z"/>
  <path id="hanoi" fill="#000" d="m600.27,155.11-0.16141-3.2281,4.0351-1.9369,5.0036-0.32281,1.4526-1.7755,3.0667,1.9369,0,2.4211-2.2597,4.0351,0.16141,3.0667,3.8737,3.5509-0.32281,2.9053-3.7123,2.2597-0.96843-3.7123-2.5825-5.4878-5.165-0.32281-1.4526,1.2912z"/>
  <path id="saigon" fill="#000" d="m610.43,167.54-5.8106,0-0.96843,4.0351,3.7123,3.8737,1.9369,1.614,0.80703,2.7439,3.2281-4.0351,4.8422-1.4526,0.32281-8.7159-2.0983-2.2597-0.80702,3.0667-3.2281,2.2597z"/>
  <path id="bangkok" fill="#000" d="m593.81,158.66,0.48422-1.614,4.6808-1.4526,2.4211,5.0036,2.0983-1.4526,4.0351,0.64562,3.2281,6.9404-6.6176,0.32281-1.1298,4.0351-4.1965-1.6141-1.614,8.0703,2.7439,4.5194,5.0036,5.0036-4.8422-0.32281-6.6176-6.4562,0.48421-6.1334,3.0667-3.0667,0.48422-2.0983-2.0983-2.7439,1.1298-4.5194z"/>
  <path id="singapore" fill="#000" d="m599.62,187.07,5.4878,0.64563,1.614,1.9369-0.16141,3.3895,1.2912,2.2597-2.0983,1.614-7.1018-5.8106z"/>
  <path id="medan" fill="#000" d="m587.84,187.23,10.491,5.0036,7.2632,5.6492,2.4211,5.3264,4.8422,3.8737-1.4526,5.8106-1.2912,0.80703-6.779-3.8737-15.818-21.305z"/>
  <path id="manila" fill="#000" d="m644.49,156.56,3.5509,1.7755-0.32281,7.7474,8.3931,5.8106-0.32281,4.5194-7.1018,3.2281-9.5229,3.8737-3.5509-0.48422,1.2912-3.3895,6.4562-9.8457-1.614-5.8106z"/>
  <path id="davao" fill="#000" d="m641.1,183.36,1.9369,3.0667,4.0351-1.1298,4.1965-3.2281,0.80702,3.7123,2.9053,0.80703-0.32281-3.0667,3.8737-0.64562-2.0983-6.4562z"/>
  <path id="brunei" fill="#000" d="m635.13,183.52,5.0036,0.96843,2.4211,3.0667-5.8106,4.8422,2.9053,4.1965-1.7755,2.2597-0.64562,3.3895-2.9053,1.4526,0,4.5194-3.0667,0.32281-1.6141-2.7439-8.2317,0.64562-0.96844-4.8422-1.9369-1.6141,0.48422-5.8106,4.1965,1.7755,0-1.9369,4.0351-1.614,4.8422-4.0351z"/>
  <path id="jakarta" fill="#000" d="m612.69,213.05,16.463,2.2597,3.3895,2.4211,20.337,0.32281-13.558,1.7755-9.8457-1.1298-12.267-1.1298-5.972-2.7439z"/>
  <path id="moresby" fill="#000" d="m670.48,199.82,3.8737,1.7755,1.9369,4.6808,5.972-2.0983,13.074,2.9053,9.5229,6.9404-0.96843,2.4211,7.4246,7.2632-7.9089-1.2912-5.972-5.165-3.0667,2.4211-5.0036,0.48422-3.0667-2.2597-3.5509,0.48421-0.80703-2.4211,1.614-1.7754-10.007-5.972-3.7123-3.5509-1.9369-2.4211z"/>
  <path id="outback" fill="#0F0" d="m661.44,237.1,3.2281,5.4878,22.274,5.4878-0.48421,19.53-9.0387,10.976-3.8737-5.4878-2.9053-0.80702-3.2281-0.64563-3.7123,0-2.4211,0.64562-2.4211,0.00001-4.0351,0.80702-1.614-1.614-1.9369-2.0983-5.6492-1.1298-13.074,0.96843-3.0667-7.1018-0.32281-2.0983,0.96843-2.0983-2.5825-4.6808,1.4526-3.7123,9.0387-4.6808,7.1018-0.80702,4.5193-7.2632,1.9369,2.2597,3.8737-7.1018,3.0667-1.1298,2.5825,3.2281z"/>
  <path id="perth" fill="#000" d="m632.22,269.87,0.64562,4.6808-2.5825,2.0983,9.0387,2.0983,3.0667-2.5825,9.2001,0.32281,3.0667-2.4211-3.7123-3.5509-5.6492-1.614z"/>
  <path id="darwin" fill="#000" d="m662.08,233.88,3.0667-0.64562,0.64562-7.586,5.165-1.4526,4.0351,3.2281,5.0036-0.48422-3.0667,6.1334,10.976,7.2632-0.96844,7.2632-21.951-5.8106-2.9053-5.165z"/>
  <path id="brisbane" fill="#000" d="m691.14,228.23,1.4526-3.5509,4.3579,8.5545,2.9053,1.4526,1.4526,7.9089,5.4878,3.2281,8.7159,11.621,0.80703,3.2281-13.881-0.16141-6.9404,0.1614-8.0703,0.00001,1.1298-21.306,3.0667-3.3895z"/>
  <path id="melbourne" fill="#000" d="m687.59,268.09,10.814,9.3615,11.298,7.4246-3.7123,6.1334-0.48421,5.6492-3.8737,2.4211-8.3931-12.428-7.1018-2.2597-2.4211-4.5194-5.3264-0.64562z"/>
  <path id="sydney" fill="#000" d="m687.59,261.8,0,5.3264,21.951,16.625,0.32281-4.3579,6.4562-7.7474,0.32281-10.491z"/>
  <path id="wellington" fill="#000" d="m759.9,278.59,3.8737-0.32281,3.2281,4.6808,7.1018,1.1298-0.16141,2.0983-9.5229,7.4246-4.8422,4.8422-2.0983,0.64562-0.96844,1.4526,0.16141,1.2912-4.1965,3.2281-6.1334-1.9369,0.64563-3.3895,9.5229-3.8737,0.48422-2.0983,1.9369-2.4211,2.7439-4.1965,2.4211-0.32282,0-4.3579z"/>
 </g>
</svg>